<svg xmlns="http://www.w3.org/2000/svg" viewBox="264 95 72 56" fill="none" width="240" height="187">
  <polygon fill="#d9465f" points="302.9 123.59 269.34 99.81 280.14 118.1 303.43 125.55 302.9 123.59"/>
  <polygon fill="#faaf40" points="303.43 125.55 280.14 118.1 285.31 126.84 303.84 127.11 303.43 125.55"/>
  <polygon fill="#45abdd" points="304.54 129.76 304.16 128.34 288.8 132.76 291.67 137.6 301.26 131.8 304.54 129.76"/>
  <polygon fill="#a4ce4a" points="303.84 127.11 285.31 126.84 288.8 132.76 304.17 128.37 303.84 127.11"/>
  <path fill="#ffffff" d="M316.5,106.11l-7.51,13.75-1.9,3.48-16.44-11.51,13.36-7.8,6.85-4,5.63,6.08ZM310.27,99.99l-10.49,6.12-9.43,5.51-16.23-11.63h36.16ZM301.05,146.27l-4.9-8.61,12.54-7.63.75,2.82.13.49-8.52,12.93ZM309.83,133.02l-.12-.46-.75-2.83s0,0,0,0l-1.62-6.11,9.4-17.21.42.56,6.91,9.21-14.23,16.85ZM324.74,105.23l-.61,10.47-7.18-9.58,8.05-5.37-.26,4.47s0,0,0,0ZM325.1,104.93l.25-4.32,6.1.48-6.36,3.84Z"/>
  <path fill="rgba(255,255,255,0.15)" d="M332.01,100.79l-3.26-.26-7.65-.61c-.1,0-.19.02-.27.07l-5.89,3.93-3.91-4.22s0,0-.01,0c-.01-.01-.03-.02-.05-.03-.02,0-.03-.02-.05-.02,0,0,0,0-.01,0h-17.84l-23.72-.25c-.16-.03-.29.08-.37.21-.08.13-.08.3,0,.43l22.33,37.78,5.12,9c.07.13.21.21.35.21h.01c.14,0,.28-.07.35-.19l2.06-3.12,1.69,2.97c.03.05.08.08.14.09h0c.06,0,.11-.03.14-.08l8.71-13.22,14.52-17.19s0,0,0,0c.02-.03.04-.06.04-.1l.63-10.85,7.01-4.23c.06-.04.09-.11.08-.18s-.08-.12-.15-.13Z"/>
</svg>
