<?xml version="1.0" encoding="UTF-8"?>
<!-- Refract Ventures · Social template · Announcement / Now-booking · 1080×1080
     Editable: the eyebrow label, the property name, and the location line. -->
<svg xmlns="http://www.w3.org/2000/svg" width="1080" height="1080" viewBox="0 0 1080 1080">
  <rect width="1080" height="1080" fill="#111010"/>
  <!-- soft accent wash, bottom-left -->
  <rect width="1080" height="1080" fill="url(#wash)"/>
  <defs>
    <radialGradient id="wash" cx="18%" cy="100%" r="90%">
      <stop offset="0%" stop-color="#d9465f" stop-opacity="0.12"/>
      <stop offset="55%" stop-color="#d9465f" stop-opacity="0"/>
    </radialGradient>
  </defs>
  <rect x="48" y="48" width="984" height="984" fill="none" stroke="rgba(255,255,255,0.10)" stroke-width="1.5"/>

  <!-- Eyebrow (edit) -->
  <text x="540" y="430" text-anchor="middle" font-family="'Inter', sans-serif" font-weight="600" font-size="30" letter-spacing="9" fill="#faaf40">NOW BOOKING</text>

  <!-- Property name (edit) -->
  <text x="540" y="560" text-anchor="middle" font-family="'Cormorant Garamond', Georgia, serif" font-weight="500" font-size="138" fill="#e8e4df">Little Sugar</text>

  <!-- Location line (edit) -->
  <text x="540" y="640" text-anchor="middle" font-family="'Inter', sans-serif" font-weight="400" font-size="32" letter-spacing="2" fill="#a8a39e">Bella Vista · creekside · trail access</text>

  <!-- Mark, centered footer -->
  <svg x="492" y="864" width="96" height="74" viewBox="264 95 72 56">
    <polygon fill="#d9465f" points="302.9 123.59 269.34 99.81 280.14 118.1 303.43 125.55 302.9 123.59"/>
    <polygon fill="#faaf40" points="303.43 125.55 280.14 118.1 285.31 126.84 303.84 127.11 303.43 125.55"/>
    <polygon fill="#45abdd" points="304.54 129.76 304.16 128.34 288.8 132.76 291.67 137.6 301.26 131.8 304.54 129.76"/>
    <polygon fill="#a4ce4a" points="303.84 127.11 285.31 126.84 288.8 132.76 304.17 128.37 303.84 127.11"/>
    <path fill="#fff" d="M316.5,106.11l-7.51,13.75-1.9,3.48-16.44-11.51,13.36-7.8,6.85-4,5.63,6.08ZM310.27,99.99l-10.49,6.12-9.43,5.51-16.23-11.63h36.16ZM301.05,146.27l-4.9-8.61,12.54-7.63.75,2.82.13.49-8.52,12.93ZM309.83,133.02l-.12-.46-.75-2.83s0,0,0,0l-1.62-6.11,9.4-17.21.42.56,6.91,9.21-14.23,16.85ZM324.74,105.23l-.61,10.47-7.18-9.58,8.05-5.37-.26,4.47s0,0,0,0ZM325.1,104.93l.25-4.32,6.1.48-6.36,3.84Z"/>
  </svg>
</svg>
