<?xml version="1.0" encoding="UTF-8"?>
<!-- Refract Ventures · Social template · Property feature (photo + caption bar) · 1080×1080
     Editable: drop a photo into the image area, edit the caption + meta line.
     The grey block is a photo placeholder — replace with your image. -->
<svg xmlns="http://www.w3.org/2000/svg" width="1080" height="1080" viewBox="0 0 1080 1080">
  <rect width="1080" height="1080" fill="#111010"/>

  <!-- Photo placeholder (replace with image, 1080×740) -->
  <rect x="0" y="0" width="1080" height="740" fill="#1e1d1c"/>
  <text x="540" y="378" text-anchor="middle" font-family="'Inter', sans-serif" font-weight="500" font-size="26" letter-spacing="3" fill="#5a5754">REPLACE WITH PHOTO · 1080 × 740</text>

  <!-- Caption bar -->
  <text x="64" y="852" font-family="'Cormorant Garamond', Georgia, serif" font-weight="500" font-size="84" fill="#e8e4df">The Balcony Suite</text>
  <text x="64" y="918" font-family="'Inter', sans-serif" font-weight="400" font-size="30" fill="#a8a39e">Faye Social House · Putnam District, Fayetteville</text>

  <!-- meta chips (edit) -->
  <g font-family="'Inter', sans-serif" font-weight="500" font-size="26" fill="#8a8580">
    <text x="64" y="1004">2 guests</text>
    <text x="250" y="1004">·</text>
    <text x="280" y="1004">Tesla charging</text>
    <text x="540" y="1004">·</text>
    <text x="570" y="1004">Trail access</text>
  </g>

  <!-- Mark, bottom-right -->
  <svg x="940" y="956" width="76" height="59" viewBox="264 95 72 56">
    <polygon fill="#d9465f" points="302.9 123.59 269.34 99.81 280.14 118.1 303.43 125.55 302.9 123.59"/>
    <polygon fill="#faaf40" points="303.43 125.55 280.14 118.1 285.31 126.84 303.84 127.11 303.43 125.55"/>
    <polygon fill="#45abdd" points="304.54 129.76 304.16 128.34 288.8 132.76 291.67 137.6 301.26 131.8 304.54 129.76"/>
    <polygon fill="#a4ce4a" points="303.84 127.11 285.31 126.84 288.8 132.76 304.17 128.37 303.84 127.11"/>
    <path fill="#fff" d="M316.5,106.11l-7.51,13.75-1.9,3.48-16.44-11.51,13.36-7.8,6.85-4,5.63,6.08ZM310.27,99.99l-10.49,6.12-9.43,5.51-16.23-11.63h36.16ZM301.05,146.27l-4.9-8.61,12.54-7.63.75,2.82.13.49-8.52,12.93ZM309.83,133.02l-.12-.46-.75-2.83s0,0,0,0l-1.62-6.11,9.4-17.21.42.56,6.91,9.21-14.23,16.85ZM324.74,105.23l-.61,10.47-7.18-9.58,8.05-5.37-.26,4.47s0,0,0,0ZM325.1,104.93l.25-4.32,6.1.48-6.36,3.84Z"/>
  </svg>
</svg>
